<?xml version="1.0" standalone="no"?>
<!DOCTYPE svg PUBLIC "-//W3C//DTD SVG 20010904//EN"
 "http://www.w3.org/TR/2001/REC-SVG-20010904/DTD/svg10.dtd">
<svg version="1.0" xmlns="http://www.w3.org/2000/svg"
 width="32.000000pt" height="32.000000pt" viewBox="0 0 32.000000 32.000000"
 preserveAspectRatio="xMidYMid meet">

<g transform="translate(0.000000,32.000000) scale(0.100000,-0.100000)"
fill="#060A4C" stroke="none">
<path d="M54 305 c-3 -8 -4 -20 -1 -27 3 -7 6 -3 6 10 1 20 6 22 65 22 l65 0
3 -37 c3 -36 5 -38 41 -41 l37 -3 0 -110 0 -109 -105 0 c-85 0 -105 3 -105 15
0 10 16 15 63 18 l62 3 -67 2 -68 2 0 45 0 45 90 0 90 0 0 -44 c0 -26 -5 -46
-13 -49 -7 -3 -4 -6 6 -6 16 -1 18 6 15 51 l-3 53 -87 3 -88 3 -1 52 c-2 37
-5 24 -11 -48 -7 -68 -6 -109 1 -127 l11 -28 110 0 110 0 0 123 0 123 -38 37
c-37 36 -40 37 -110 37 -55 0 -74 -4 -78 -15z m181 -35 l29 -30 -32 0 c-29 0
-32 3 -32 30 0 17 1 30 3 30 2 0 16 -13 32 -30z"/>
<path d="M70 95 c0 -23 2 -25 21 -15 23 13 21 33 -4 38 -12 3 -17 -4 -17 -23z
m30 11 c0 -3 -4 -8 -10 -11 -5 -3 -10 -1 -10 4 0 6 5 11 10 11 6 0 10 -2 10
-4z"/>
<path d="M120 90 c0 -25 4 -31 18 -28 23 4 23 52 0 56 -14 3 -18 -3 -18 -28z
m30 -2 c0 -16 -3 -19 -11 -11 -6 6 -8 16 -5 22 11 17 16 13 16 -11z"/>
<path d="M180 88 c0 -34 6 -35 12 -3 1 11 8 23 13 27 6 4 2 8 -7 8 -14 0 -18
-8 -18 -32z"/>
</g>
</svg>
